<svg width="823" height="384" viewBox="0 0 823 384" fill="none" xmlns="http://www.w3.org/2000/svg">
<path d="M150.142 118.249C142.436 148.059 119.318 181.596 78.3023 181.596C36.2925 181.596 0 146.32 0 90.6738C0 35.2758 36.2925 0 75.5679 0C114.595 0 120.064 20.1221 121.058 26.8295C126.775 60.6148 73.8279 82.4759 88.494 112.038C58.9132 89.1832 107.635 55.8948 101.42 28.32C98.6858 17.1411 86.754 5.21685 66.8677 5.21685C62.3933 5.21685 57.4217 5.71369 52.2015 7.20421C23.1178 14.9053 4.723 54.1558 18.6434 104.585C33.061 156.505 64.8791 167.188 87.0026 167.188C128.764 167.188 151.384 127.44 151.384 90.6738C151.384 35.2758 187.677 0 226.952 0C265.979 0 302.769 35.2758 302.769 90.6738C302.769 146.32 265.979 181.596 226.952 181.596C194.637 181.596 164.311 157.748 154.616 118.249C153.87 114.522 153.125 112.535 152.379 112.535C151.633 112.535 151.136 114.522 150.142 118.249ZM283.877 77.0106C271.199 31.0527 240.376 5.96211 213.778 5.96211C210.298 5.96211 206.818 6.21053 203.586 7.20421C174.502 14.9053 156.107 54.1558 170.028 104.585C182.705 150.295 213.778 175.385 240.376 175.385C244.104 175.385 247.584 175.137 250.816 174.143C279.651 166.442 297.797 127.44 283.877 77.0106Z" fill="black"/>
<path d="M325.221 177.621V3.72632H371.208C404.269 3.72632 457.713 24.8421 457.713 96.6359C457.713 148.308 429.872 177.621 371.705 177.621H325.221ZM345.107 175.634C349.084 175.634 363.999 175.634 371.456 175.634C417.443 175.634 436.584 142.594 436.584 94.6485C436.584 32.0463 404.02 5.71369 363.999 5.71369C363.999 5.71369 350.079 5.71369 345.107 5.71369V175.634Z" fill="black"/>
<path d="M499.983 95.3938V175.634C531.056 175.634 570.331 178.118 595.935 161.225V177.621H480.097V3.72632H588.229V20.1221C565.111 5.46527 535.53 5.71369 499.983 5.71369V80.4885C499.983 85.9538 499.983 92.4127 516.389 92.4127C535.778 92.4127 543.733 83.4696 555.913 83.718C564.116 83.9664 571.325 88.1896 576.297 96.3875C571.822 92.4127 566.105 90.4254 562.376 90.4254C552.185 90.1769 538.016 103.343 524.095 103.095C513.158 103.095 507.441 94.6485 503.463 91.6675C500.977 89.9285 499.983 90.9222 499.983 95.3938Z" fill="black"/>
<path d="M822.994 105.827C823.242 122.223 816.034 143.588 800.124 159.238L816.282 177.621H792.667L785.955 170.169C774.272 177.124 759.855 181.596 741.957 181.596C704.173 181.596 675.338 161.474 675.338 131.663C675.338 108.312 693.484 96.3875 713.122 86.4506C697.959 66.8253 690.501 51.4232 690.501 37.0148C690.501 12.1726 712.376 0.745269 735.494 0.745269C758.363 0.745269 779.492 11.9242 779.99 34.5306C780.735 59.8695 754.883 69.8064 730.771 80.7369C738.477 90.1769 747.177 99.6169 756.126 109.802L798.136 157.251C808.825 146.569 814.791 132.16 813.548 115.764C812.553 104.089 808.328 96.6359 797.39 96.3875C789.933 96.139 779.492 99.3685 770.544 99.3685C765.075 99.3685 760.352 98.1264 757.12 94.1517C752.149 87.6927 757.12 80.7369 761.346 78.0043C764.081 83.9664 769.052 85.9538 774.769 85.9538C784.464 85.9538 796.644 80.7369 805.096 80.7369C816.282 80.9853 822.994 90.1769 822.994 105.827ZM729.031 78.7496C751.403 67.5706 770.046 55.6464 760.849 27.5748C754.883 9.44001 743.2 2.98106 731.268 2.98106C729.031 2.98106 726.545 3.22948 724.059 3.72632C705.416 7.70106 702.433 22.6063 707.405 39.9958C711.133 53.659 719.088 66.3285 729.031 78.7496ZM783.967 167.933L737.483 115.764C728.782 105.827 721.076 96.8843 714.862 88.6864C697.213 98.8717 684.784 112.286 693.236 137.625C701.936 163.461 723.562 177.373 748.42 177.373C760.352 177.373 773.775 173.895 783.967 167.933Z" fill="black"/>
<path d="M25.6123 299.49V380.931H6.71534V215.688H46.6351C81.8306 215.688 118.916 234.573 118.916 276.12C118.916 313.89 87.9721 328.761 69.5476 328.761C58.2095 328.761 39.785 323.096 40.2574 302.086C40.4936 287.215 49.9421 276.828 42.6195 273.995C36.0056 271.634 25.6123 278.716 25.6123 299.49ZM26.5571 281.549C29.8641 274.939 39.0763 268.33 45.6903 270.926C52.3042 273.523 46.8713 281.549 44.9816 288.395C42.1471 297.601 44.0368 310.113 64.8234 310.113C83.9565 310.113 101.2 299.726 101.2 270.454C101.2 234.809 75.6891 217.576 44.5092 217.576C44.5092 217.576 28.9192 217.576 25.6123 217.576C25.6123 273.287 25.6123 278.952 25.6123 280.369C25.6123 282.493 25.6123 283.674 26.5571 281.549Z" fill="black"/>
<path d="M158.983 287.215C180.715 257.707 180.242 234.337 174.337 215.688H194.887L253.232 380.931H232.681L211.895 322.152C207.407 309.64 205.281 304.447 203.391 304.447C200.793 304.447 199.848 314.598 199.139 320.735C194.651 356.145 180.479 384 153.078 384C137.252 384 121.426 374.558 121.426 350.951C121.426 323.804 142.212 310.113 158.983 287.215ZM177.644 253.694C171.975 286.979 139.141 303.031 134.653 335.607C131.819 355.673 142.212 365.823 156.385 365.823C184.258 365.823 201.738 326.873 198.431 293.588C196.541 274.231 186.384 244.251 182.132 244.251C180.951 244.251 179.061 246.14 177.644 253.694Z" fill="black"/>
<path d="M286.506 379.043C316.033 379.043 353.354 381.403 377.684 365.351V380.931H267.609V215.688H286.506V379.043Z" fill="black"/>
<path d="M415.454 302.795V379.043C444.98 379.043 482.302 381.403 506.631 365.351V380.931H396.557V215.688H499.309V231.268C477.341 217.34 449.232 217.576 415.454 217.576V288.631C415.454 293.824 415.454 299.962 431.044 299.962C449.468 299.962 457.027 291.464 468.601 291.7C476.396 291.936 483.247 295.949 487.971 303.739C483.719 299.962 478.286 298.073 474.743 298.073C465.058 297.837 451.594 310.349 438.366 310.113C427.973 310.113 422.54 302.086 418.761 299.254C416.399 297.601 415.454 298.546 415.454 302.795Z" fill="black"/>
<path d="M572.691 380.931V217.576C552.141 217.576 534.425 219.465 518.363 231.268V215.688H691.033V231.268C674.499 218.993 658.436 217.34 636.941 217.34V380.931H618.044V217.576H591.588V380.931H572.691Z" fill="black"/>
<path d="M728.942 302.795V379.043C758.468 379.043 795.79 381.403 820.119 365.351V380.931H710.045V215.688H812.797V231.268C790.829 217.34 762.72 217.576 728.942 217.576V288.631C728.942 293.824 728.942 299.962 744.532 299.962C762.956 299.962 770.515 291.464 782.089 291.7C789.884 291.936 796.734 295.949 801.459 303.739C797.207 299.962 791.774 298.073 788.231 298.073C778.546 297.837 765.082 310.349 751.854 310.113C741.461 310.113 736.028 302.086 732.249 299.254C729.886 297.601 728.942 298.546 728.942 302.795Z" fill="black"/>
</svg>
