<svg width="1263" height="336" viewBox="0 0 1263 336" fill="none" xmlns="http://www.w3.org/2000/svg">
<path d="M157.964 158.292H65.0962C27.1049 158.958 0 134.759 0 81.2552C0 22.2009 30.2153 2.88612 65.0962 2.88612H157.964V53.9481C128.859 53.9481 93.7563 13.0985 60.6527 13.0985C52.8768 13.0985 47.7668 16.8727 44.6564 23.0889C41.1017 33.9674 45.3229 54.8362 45.3229 79.0351C45.3229 100.57 41.1017 120.329 43.1012 131.429C46.2116 141.198 52.2102 148.08 61.5414 148.08C94.8671 148.08 126.86 105.898 157.964 105.898V158.292Z" fill="black"/>
<path d="M258.166 160.512C200.846 160.512 175.741 128.321 175.741 80.1452C175.741 32.1913 207.289 0 265.276 0C324.151 0 349.701 31.0812 349.701 78.3691C349.701 127.211 316.153 160.512 258.166 160.512ZM280.606 147.414C301.268 147.414 313.709 132.317 313.709 107.674C313.709 72.5969 288.826 12.6545 253.279 12.6545C227.285 12.6545 210.4 26.4191 210.4 55.5022C210.4 89.9136 239.726 147.414 280.606 147.414Z" fill="black"/>
<path d="M467.846 158.292H365.203V79.0351C365.203 53.5041 365.203 28.1951 365.203 2.88612H466.513C517.39 2.88612 534.497 39.2956 534.497 79.7012C534.497 121.661 513.169 158.292 467.846 158.292ZM410.97 146.748H429.854C469.623 146.748 489.619 98.1279 489.619 61.9405C489.619 35.5214 477.621 14.2086 448.739 14.2086H424.745C406.082 28.6391 400.084 55.0582 393.641 82.5873C387.864 108.562 392.085 134.537 410.97 146.748Z" fill="black"/>
<path d="M719.965 158.292H608.435C566.445 158.292 551.559 139.422 551.559 119.885C551.559 103.678 563.779 85.2514 604.436 85.2514C628.875 85.2514 641.316 93.0217 653.758 93.0217C662.867 93.0217 667.088 87.4715 667.088 81.9213C667.088 76.371 662.867 70.8208 653.758 70.8208C639.983 70.8208 628.875 77.7031 605.769 77.7031C564.223 77.7031 550.893 58.6103 550.893 40.6276C550.893 22.2009 563.779 2.88612 608.435 2.88612H719.965V51.506C687.084 51.506 656.646 11.5445 619.988 11.5445C602.881 11.5445 595.105 23.755 595.105 36.1874C595.105 51.062 605.547 68.1567 623.32 68.1567C646.204 68.1567 662.645 60.1644 675.753 60.1644C691.527 60.1644 699.303 70.8208 699.303 81.6992C699.303 92.5777 691.527 104.344 675.753 104.344C661.09 104.344 645.982 95.0198 623.32 95.0198C605.102 95.0198 594.66 111.67 594.66 126.101C594.66 138.534 602.659 149.19 619.988 149.19C657.757 149.19 687.75 109.894 719.965 109.894V158.292Z" fill="black"/>
<path d="M792.709 158.292H778.49V156.072C778.49 103.9 869.136 99.682 869.136 67.7127C869.136 62.3845 867.136 56.6123 860.693 56.6123C841.586 56.6123 835.588 93.9097 807.372 93.9097C794.708 93.9097 784.488 83.2533 784.266 63.7165C784.266 26.8631 814.704 0 858.916 0C910.237 0 932.454 41.5157 932.454 95.0198V158.292H918.68V95.0198C918.68 75.483 920.902 57.7223 915.569 41.7377C906.905 19.7588 884.688 6.66027 856.916 6.66027C811.593 6.66027 792.042 32.6353 792.264 62.8285C792.264 79.4792 798.93 88.8035 809.816 88.8035C829.811 88.8035 837.81 53.2821 861.137 53.2821C871.58 53.2821 877.134 60.1644 877.134 68.1567C877.134 103.234 792.709 105.898 792.709 156.072V158.292Z" fill="black"/>
<path d="M963.538 158.292H950.207V2.88612H961.316C1037.52 2.88612 1025.52 154.074 1080.62 154.074C1082.4 154.074 1083.51 153.186 1083.51 151.188C1083.51 102.124 1077.07 51.284 1077.07 2.88612H1090.4V158.292H1078.84C1011.97 158.292 1025.3 7.10428 959.761 7.10428C958.206 7.10428 957.095 7.77031 957.095 9.76839C957.095 54.6142 963.538 109.228 963.538 158.292Z" fill="black"/>
<path d="M1210.35 158.292H1108.59V77.4811C1108.59 52.6161 1108.59 27.7511 1108.59 2.88612H1210.12C1250.56 2.88612 1263 37.9635 1263 79.7012C1263 123.659 1249.89 158.292 1210.35 158.292ZM1119.92 151.854H1205.24C1245.89 151.854 1251.22 117.443 1251.22 77.2591C1251.22 40.6276 1249.67 9.10236 1207.68 9.10236H1121.7C1119.26 31.7473 1118.37 55.9462 1117.48 80.3672C1116.81 104.788 1117.26 129.209 1119.92 151.854Z" fill="black"/>
<path d="M60.2084 336H2.22171L2.44388 180.594H108.42C143.523 180.594 158.852 199.243 158.852 225.884C158.852 269.619 123.083 292.486 88.4242 292.486C58.2089 292.486 31.7705 278.056 19.5511 261.849H17.1072C17.1072 281.83 60.2084 314.243 60.2084 336ZM73.7609 275.392C99.3106 275.392 116.196 259.629 116.196 227.66C115.973 207.457 103.976 189.474 73.983 189.474H68.4287C36.8804 189.474 21.7728 207.013 21.7728 233.21C21.7728 259.185 45.3229 275.392 73.7609 275.392Z" fill="black"/>
<path d="M235.149 336H171.83V332.67C171.83 275.836 286.915 268.287 286.915 240.758C286.915 235.652 284.027 232.1 277.14 232.1C256.255 232.1 233.594 266.511 205.6 266.511C190.271 266.511 180.273 257.853 180.273 242.312C180.273 212.119 208.266 177.708 272.252 177.708C346.457 177.708 356.899 260.073 356.899 332.004V336H296.468V331.116C296.468 300.701 329.572 273.172 329.572 238.316C329.572 216.781 295.58 204.571 260.032 204.571C226.04 204.571 196.714 217.225 196.714 234.098C196.714 242.312 202.934 244.31 211.155 244.31C225.596 244.31 252.701 222.553 276.917 222.553C295.802 222.553 302.689 232.988 302.689 243.644C302.689 273.616 235.149 287.602 235.149 333.336V336Z" fill="black"/>
<path d="M531.158 336H374.749V180.594H432.736C432.736 232.322 384.747 279.388 384.747 317.129V326.232H392.078C439.623 326.232 499.832 284.938 531.158 284.938V336Z" fill="black"/>
<path d="M716.711 336H605.181C563.19 336 548.305 317.129 548.305 297.592C548.305 281.386 560.524 262.959 601.182 262.959C625.62 262.959 638.062 270.729 650.504 270.729C659.613 270.729 663.834 265.179 663.834 259.629C663.834 254.079 659.613 248.529 650.504 248.529C636.729 248.529 625.62 255.411 602.515 255.411C560.969 255.411 547.638 236.318 547.638 218.335C547.638 199.909 560.524 180.594 605.181 180.594H716.711V229.214C683.829 229.214 653.392 189.252 616.734 189.252C599.626 189.252 591.85 201.463 591.85 213.895C591.85 228.77 602.292 245.864 620.066 245.864C642.95 245.864 659.39 237.872 672.498 237.872C688.273 237.872 696.049 248.529 696.049 259.407C696.049 270.285 688.273 282.052 672.498 282.052C657.835 282.052 642.728 272.728 620.066 272.728C601.848 272.728 591.406 289.378 591.406 303.809C591.406 316.241 599.404 326.898 616.734 326.898C654.503 326.898 684.496 287.602 716.711 287.602V336Z" fill="black"/>
<path d="M848.227 336H776.244C776.244 292.486 811.347 227.216 811.347 200.575C811.347 192.36 808.236 188.586 800.683 188.808C779.132 188.586 760.692 232.544 732.476 232.322V180.594H896.661V232.322C860.891 232.322 847.339 188.808 830.898 188.808C825.344 188.808 821.567 193.026 821.567 200.575C821.567 231.656 848.227 304.697 848.227 336Z" fill="black"/>
<path d="M1026.14 336H954.154C954.154 292.486 989.257 227.216 989.257 200.575C989.257 192.36 986.147 188.586 978.593 188.808C957.043 188.586 938.602 232.544 910.387 232.322V180.594H1074.57V232.322C1038.8 232.322 1025.25 188.808 1008.81 188.808C1003.25 188.808 999.477 193.026 999.477 200.575C999.477 231.656 1026.14 304.697 1026.14 336Z" fill="black"/>
<path d="M1258.04 336H1146.51C1104.52 336 1089.63 317.129 1089.63 297.592C1089.63 281.386 1101.85 262.959 1142.51 262.959C1166.95 262.959 1179.39 270.729 1191.83 270.729C1200.94 270.729 1205.16 265.179 1205.16 259.629C1205.16 254.079 1200.94 248.529 1191.83 248.529C1178.05 248.529 1166.95 255.411 1143.84 255.411C1102.29 255.411 1088.96 236.318 1088.96 218.335C1088.96 199.909 1101.85 180.594 1146.51 180.594H1258.04V229.214C1225.15 229.214 1194.72 189.252 1158.06 189.252C1140.95 189.252 1133.18 201.463 1133.18 213.895C1133.18 228.77 1143.62 245.864 1161.39 245.864C1184.28 245.864 1200.72 237.872 1213.82 237.872C1229.6 237.872 1237.37 248.529 1237.37 259.407C1237.37 270.285 1229.6 282.052 1213.82 282.052C1199.16 282.052 1184.05 272.728 1161.39 272.728C1143.17 272.728 1132.73 289.378 1132.73 303.809C1132.73 316.241 1140.73 326.898 1158.06 326.898C1195.83 326.898 1225.82 287.602 1258.04 287.602V336Z" fill="black"/>
</svg>
